<svg width="17" height="16" viewBox="0 0 17 16" fill="none" xmlns="http://www.w3.org/2000/svg">
<g id="alert">
<path id="Vector" fill-rule="evenodd" clip-rule="evenodd" d="M9.16667 0.666748H7.83333V1.37008C5.742 1.60008 3.83333 2.92141 3.83333 5.33341V11.0001L2.5 12.0001V13.3334H14.5V12.0001L13.1667 11.0001V5.33341C13.1667 2.92141 11.258 1.60008 9.16667 1.37008V0.666748ZM9.83333 14.0001H7.16667C7.16667 14.3537 7.30714 14.6928 7.55719 14.9429C7.80724 15.1929 8.14638 15.3334 8.5 15.3334C8.85362 15.3334 9.19276 15.1929 9.44281 14.9429C9.69286 14.6928 9.83333 14.3537 9.83333 14.0001ZM8.498 2.66675H8.502C9.43333 2.66675 10.3 2.93675 10.9 3.39341C11.4633 3.82408 11.8333 4.44008 11.8333 5.33341V11.6667L12.278 12.0001H4.722L5.16667 11.6667V5.33341C5.16667 4.44008 5.53667 3.82341 6.1 3.39341C6.7 2.93741 7.566 2.66675 8.498 2.66675Z" fill="#FAFAFA"/>
</g>
</svg>
