<svg width="16" height="16" viewBox="0 0 16 16" fill="none" xmlns="http://www.w3.org/2000/svg">
<g id="nrk:time">
<path id="Vector" fill-rule="evenodd" clip-rule="evenodd" d="M14 8.00008C14 8.78801 13.8448 9.56823 13.5432 10.2962C13.2417 11.0241 12.7998 11.6856 12.2426 12.2427C11.6854 12.7999 11.024 13.2418 10.2961 13.5434C9.56811 13.8449 8.78789 14.0001 7.99996 14.0001C7.21203 14.0001 6.43181 13.8449 5.70386 13.5434C4.9759 13.2418 4.31447 12.7999 3.75732 12.2427C3.20017 11.6856 2.75821 11.0241 2.45668 10.2962C2.15515 9.56823 1.99996 8.78801 1.99996 8.00008C1.99996 6.40878 2.6321 4.88266 3.75732 3.75744C4.88254 2.63222 6.40866 2.00008 7.99996 2.00008C9.59126 2.00008 11.1174 2.63222 12.2426 3.75744C13.3678 4.88266 14 6.40878 14 8.00008ZM7.99996 15.3334C12.05 15.3334 15.3333 12.0501 15.3333 8.00008C15.3333 3.95008 12.05 0.666748 7.99996 0.666748C3.94996 0.666748 0.666626 3.95008 0.666626 8.00008C0.666626 12.0501 3.94996 15.3334 7.99996 15.3334ZM8.66663 4.00008V8.00008H7.33329V4.00008H8.66663Z" fill="current"/>
</g>
</svg>
