<svg width="19" height="19" viewBox="0 0 19 19" fill="none" xmlns="http://www.w3.org/2000/svg">
<g id="nrk:time">
<path id="Vector" fill-rule="evenodd" clip-rule="evenodd" d="M16.25 9.66699C16.25 10.5534 16.0754 11.4312 15.7362 12.2501C15.397 13.0691 14.8998 13.8132 14.273 14.44C13.6462 15.0668 12.9021 15.564 12.0831 15.9032C11.2642 16.2424 10.3864 16.417 9.5 16.417C8.61358 16.417 7.73583 16.2424 6.91689 15.9032C6.09794 15.564 5.35382 15.0668 4.72703 14.44C4.10023 13.8132 3.60303 13.0691 3.26381 12.2501C2.92459 11.4312 2.75 10.5534 2.75 9.66699C2.75 7.87678 3.46116 6.15989 4.72703 4.89402C5.9929 3.62815 7.70979 2.91699 9.5 2.91699C11.2902 2.91699 13.0071 3.62815 14.273 4.89402C15.5388 6.15989 16.25 7.87678 16.25 9.66699ZM9.5 17.917C14.0562 17.917 17.75 14.2232 17.75 9.66699C17.75 5.11074 14.0562 1.41699 9.5 1.41699C4.94375 1.41699 1.25 5.11074 1.25 9.66699C1.25 14.2232 4.94375 17.917 9.5 17.917ZM10.25 5.16699V9.66699H8.75V5.16699H10.25Z" fill="#212526"/>
</g>
</svg>
