<svg width="1.25rem" height="1.25rem" viewBox="0 0 21 20" fill="none" xmlns="http://www.w3.org/2000/svg">
<g id="nrk:time">
<path id="Vector" fill-rule="evenodd" clip-rule="evenodd" d="M17.8997 10.0002C17.8997 10.9851 17.7057 11.9603 17.3288 12.8703C16.9519 13.7802 16.3994 14.607 15.703 15.3035C15.0066 15.9999 14.1798 16.5523 13.2698 16.9293C12.3599 17.3062 11.3846 17.5002 10.3997 17.5002C9.41478 17.5002 8.43951 17.3062 7.52957 16.9293C6.61963 16.5523 5.79284 15.9999 5.0964 15.3035C4.39996 14.607 3.84751 13.7802 3.4706 12.8703C3.09369 11.9603 2.8997 10.9851 2.8997 10.0002C2.8997 8.01104 3.68987 6.10338 5.0964 4.69686C6.50292 3.29034 8.41057 2.50016 10.3997 2.50016C12.3888 2.50016 14.2965 3.29034 15.703 4.69686C17.1095 6.10338 17.8997 8.01104 17.8997 10.0002ZM10.3997 19.1668C15.4622 19.1668 19.5664 15.0627 19.5664 10.0002C19.5664 4.93766 15.4622 0.833496 10.3997 0.833496C5.3372 0.833496 1.23303 4.93766 1.23303 10.0002C1.23303 15.0627 5.3372 19.1668 10.3997 19.1668ZM11.233 5.00016V10.0002H9.56636V5.00016H11.233Z" fill="#FAFAFA"/>
</g>
</svg>
