<svg width="20" height="20" viewBox="0 0 20 20" fill="none" xmlns="http://www.w3.org/2000/svg">
<g id="nrk:time">
<path id="Vector" fill-rule="evenodd" clip-rule="evenodd" d="M17.5 9.99992C17.5 10.9848 17.306 11.9601 16.9291 12.87C16.5522 13.78 15.9998 14.6068 15.3033 15.3032C14.6069 15.9997 13.7801 16.5521 12.8702 16.929C11.9602 17.3059 10.985 17.4999 10 17.4999C9.01513 17.4999 8.03986 17.3059 7.12991 16.929C6.21997 16.5521 5.39318 15.9997 4.69674 15.3032C4.0003 14.6068 3.44785 13.78 3.07094 12.87C2.69403 11.9601 2.50004 10.9848 2.50004 9.99992C2.50004 8.01079 3.29022 6.10314 4.69674 4.69662C6.10326 3.2901 8.01092 2.49992 10 2.49992C11.9892 2.49992 13.8968 3.2901 15.3033 4.69662C16.7099 6.10314 17.5 8.01079 17.5 9.99992ZM10 19.1666C15.0625 19.1666 19.1667 15.0624 19.1667 9.99992C19.1667 4.93742 15.0625 0.833252 10 0.833252C4.93754 0.833252 0.833374 4.93742 0.833374 9.99992C0.833374 15.0624 4.93754 19.1666 10 19.1666ZM10.8334 4.99992V9.99992H9.16671V4.99992H10.8334Z" fill="#FAFAFA"/>
</g>
</svg>
