<svg width="100%" height="100%" viewBox="0 0 18 18" fill="none" xmlns="http://www.w3.org/2000/svg">
<g id="geopoint">
<path id="Vector" fill-rule="evenodd" clip-rule="evenodd" d="M8.59125 17.25H9.417L10.1625 16.3185C11.142 15.0945 12.3232 13.5247 13.2653 11.9002C14.178 10.3252 15 8.47875 15 6.75C15 3.29625 12.4537 0.75 9 0.75C5.54625 0.75 3 3.29625 3 6.75C3 8.46975 3.79725 10.3162 4.70325 11.9002C5.637 13.533 6.81825 15.1073 7.836 16.3373L8.59125 17.25ZM4.5 6.75C4.5 8.9625 6.2895 11.8845 8.034 14.175C8.3415 14.58 8.6565 14.9602 8.95275 15.318L9 15.375C9.3015 14.9975 9.61325 14.5948 9.93525 14.1667C11.6648 11.8673 13.5 8.96175 13.5 6.75C13.5 4.125 11.625 2.25 9 2.25C6.375 2.25 4.5 4.125 4.5 6.75Z" fill="white" fill-opacity="0.56"/>
<path id="Vector_2" d="M9 7.5C9.41421 7.5 9.75 7.16421 9.75 6.75C9.75 6.33579 9.41421 6 9 6C8.58579 6 8.25 6.33579 8.25 6.75C8.25 7.16421 8.58579 7.5 9 7.5Z" fill="white" fill-opacity="0.56"/>
<path id="Vector_3" fill-rule="evenodd" clip-rule="evenodd" d="M9 8.25C9.39782 8.25 9.77936 8.09196 10.0607 7.81066C10.342 7.52936 10.5 7.14782 10.5 6.75C10.5 6.35218 10.342 5.97064 10.0607 5.68934C9.77936 5.40804 9.39782 5.25 9 5.25C8.60218 5.25 8.22064 5.40804 7.93934 5.68934C7.65804 5.97064 7.5 6.35218 7.5 6.75C7.5 7.14782 7.65804 7.52936 7.93934 7.81066C8.22064 8.09196 8.60218 8.25 9 8.25Z" fill="white" fill-opacity="0.56"/>
</g>
</svg>
