<svg width="15" height="14" viewBox="0 0 15 14" fill="none" xmlns="http://www.w3.org/2000/svg">
<g id="geopoint">
<path id="Vector" fill-rule="evenodd" clip-rule="evenodd" d="M6.8999 13.4168H7.54215L8.12198 12.6923C8.88381 11.7403 9.80256 10.5194 10.5352 9.25591C11.2451 8.03091 11.8845 6.59475 11.8845 5.25016C11.8845 2.56391 9.90406 0.583496 7.21781 0.583496C4.53156 0.583496 2.55115 2.56391 2.55115 5.25016C2.55115 6.58775 3.17123 8.02391 3.8759 9.25591C4.60215 10.5258 5.5209 11.7502 6.31248 12.7069L6.8999 13.4168ZM3.71781 5.25016C3.71781 6.971 5.10965 9.24366 6.46648 11.0252C6.70565 11.3402 6.95065 11.6359 7.18106 11.9142L7.21781 11.9585C7.45231 11.6649 7.69479 11.3516 7.94523 11.0187C9.2904 9.23025 10.7178 6.97041 10.7178 5.25016C10.7178 3.2085 9.25948 1.75016 7.21781 1.75016C5.17615 1.75016 3.71781 3.2085 3.71781 5.25016Z" fill="#D3D4D4"/>
<path id="Vector_2" d="M7.21773 5.83317C7.5399 5.83317 7.80107 5.572 7.80107 5.24984C7.80107 4.92767 7.5399 4.6665 7.21773 4.6665C6.89557 4.6665 6.6344 4.92767 6.6344 5.24984C6.6344 5.572 6.89557 5.83317 7.21773 5.83317Z" fill="#D3D4D4"/>
<path id="Vector_3" fill-rule="evenodd" clip-rule="evenodd" d="M7.21781 6.41683C7.52723 6.41683 7.82398 6.29391 8.04277 6.07512C8.26156 5.85633 8.38448 5.55958 8.38448 5.25016C8.38448 4.94074 8.26156 4.644 8.04277 4.4252C7.82398 4.20641 7.52723 4.0835 7.21781 4.0835C6.90839 4.0835 6.61165 4.20641 6.39286 4.4252C6.17406 4.644 6.05115 4.94074 6.05115 5.25016C6.05115 5.55958 6.17406 5.85633 6.39286 6.07512C6.61165 6.29391 6.90839 6.41683 7.21781 6.41683Z" fill="#D3D4D4"/>
</g>
</svg>
