<svg width="19" height="19" viewBox="0 0 19 19" fill="none" xmlns="http://www.w3.org/2000/svg">
<g id="geopoint">
<path id="Vector" fill-rule="evenodd" clip-rule="evenodd" d="M9.09125 17.917H9.917L10.6625 16.9855C11.642 15.7615 12.8232 14.1917 13.7653 12.5672C14.678 10.9922 15.5 9.14574 15.5 7.41699C15.5 3.96324 12.9537 1.41699 9.5 1.41699C6.04625 1.41699 3.5 3.96324 3.5 7.41699C3.5 9.13674 4.29725 10.9832 5.20325 12.5672C6.137 14.2 7.31825 15.7742 8.336 17.0042L9.09125 17.917ZM5 7.41699C5 9.62949 6.7895 12.5515 8.534 14.842C8.8415 15.247 9.1565 15.6272 9.45275 15.985L9.5 16.042C9.8015 15.6645 10.1132 15.2617 10.4352 14.8337C12.1648 12.5342 14 9.62874 14 7.41699C14 4.79199 12.125 2.91699 9.5 2.91699C6.875 2.91699 5 4.79199 5 7.41699Z" fill="#212526"/>
<path id="Vector_2" d="M9.5 8.16699C9.91421 8.16699 10.25 7.83121 10.25 7.41699C10.25 7.00278 9.91421 6.66699 9.5 6.66699C9.08579 6.66699 8.75 7.00278 8.75 7.41699C8.75 7.83121 9.08579 8.16699 9.5 8.16699Z" fill="#212526"/>
<path id="Vector_3" fill-rule="evenodd" clip-rule="evenodd" d="M9.5 8.91699C9.89782 8.91699 10.2794 8.75896 10.5607 8.47765C10.842 8.19635 11 7.81482 11 7.41699C11 7.01917 10.842 6.63764 10.5607 6.35633C10.2794 6.07503 9.89782 5.91699 9.5 5.91699C9.10218 5.91699 8.72064 6.07503 8.43934 6.35633C8.15804 6.63764 8 7.01917 8 7.41699C8 7.81482 8.15804 8.19635 8.43934 8.47765C8.72064 8.75896 9.10218 8.91699 9.5 8.91699Z" fill="#212526"/>
</g>
</svg>
