<svg width="82" height="52" viewBox="0 0 82 52" fill="none" xmlns="http://www.w3.org/2000/svg">
<path d="M69.0745 35.7576C68.9629 35.2006 68.8523 34.6164 68.7448 34.0169L77.0383 31.7305L75.8119 29.0012C74.7813 26.7076 73.7852 24.3595 72.852 22.0225C72.7394 21.7415 72.4726 21.0753 72.4726 21.0743C72.0172 19.9381 71.6205 18.9495 71.2057 17.8447C71.8599 17.7871 72.5142 17.7578 73.1553 17.7578H73.2608C73.3429 17.7578 73.4251 17.7588 73.5083 17.7608L76.5666 17.8103L75.9995 14.4109L75.9214 13.8661C75.678 12.1699 75.4031 10.2483 75.2844 8.6573L75.0227 5.13356L71.7392 6.46785C71.4319 6.59218 71.1773 6.69326 70.9987 6.76301C69.1698 7.47767 64.9937 8.91405 57.5848 10.5071C57.3069 10.5668 57.0847 10.6143 56.965 10.6395L53.8956 11.2875L55.128 14.1633C55.3329 14.6404 55.5186 15.1317 55.6809 15.6239C55.7275 15.7634 55.7742 15.911 55.8208 16.0606C54.3206 14.8082 52.6114 14.1117 50.8586 14.043C50.7866 14.04 50.6932 14.0379 50.5817 14.0379C49.968 14.0379 49.3208 14.1198 48.7081 14.2745L46.8823 13.2222L48.4434 4.26728L41.3094 10.4657L28.8084 3.71436L35.9211 15.0184L32.0046 18.2015L31.819 18.2349C31.6983 18.2561 31.5847 18.2763 31.5076 18.2905C31.3595 18.3178 31.2124 18.3451 31.0653 18.3714L28.1845 18.8808L29.844 24.1927L27.4451 25.4199C27.1621 24.0472 26.9034 22.6613 26.6752 21.2997C26.2471 18.7474 25.9022 16.1445 25.6496 13.5639L25.3514 10.5112L10.9282 14.5413L11.9862 17.1937C12.1099 17.5031 12.2256 17.8012 12.3372 18.0984L4.96173 20.1039L5.04897 20.2626C5.34313 20.7994 5.60687 21.3594 5.8351 21.9274C5.97102 22.2671 6.0968 22.6158 6.21041 22.9706C6.22664 23.0141 6.24388 23.0586 6.2591 23.1041C6.27533 23.1516 6.29156 23.2041 6.30982 23.2627L6.68716 24.4838C7.02697 25.5806 7.65892 27.6235 7.79992 28.0874C8.8508 31.5616 10.4403 36.8109 11.2619 43.2781C11.3076 43.638 11.3421 43.9311 11.3634 44.1111L11.7042 47.0667L23.1492 44.0262C23.1695 44.0646 23.1898 44.102 23.2111 44.1394C24.7063 46.8272 27.3538 47.9441 28.5446 48.1594C29.1766 48.2737 29.7984 48.2858 30.0368 48.2858H30.0733C30.2782 48.2838 30.621 48.2807 31.0542 48.214C31.2357 48.1857 31.8839 48.0705 32.5859 47.7652C34.4452 46.9565 35.6837 45.1785 36.0316 44.6306C36.9121 44.3628 37.7926 44.0939 38.673 43.826C40.3518 43.3095 42.0752 42.8688 43.7946 42.518C45.2136 42.2289 46.6611 41.9934 48.0995 41.8185L51.1142 41.4526L50.2662 38.5626C50.4102 38.5707 50.5553 38.5748 50.6993 38.5758H50.7206C51.594 38.5758 53.292 38.4201 54.8501 37.3749C55.2345 37.1172 55.5967 36.8159 55.9273 36.4793C56.2631 37.8571 56.5451 39.2561 56.7662 40.6419L57.2004 43.3671L66.0852 41.304L65.3731 38.9478L69.6334 38.5515L69.0755 35.7566L69.0745 35.7576Z" fill="white"/>
<path d="M68.2287 35.9311C68.0684 35.1275 67.9102 34.2753 67.759 33.3959L75.8374 31.168L75.0249 29.3607C73.9892 27.056 72.9891 24.6967 72.0508 22.3486C71.9199 22.02 71.7942 21.7067 71.6714 21.4024C71.0861 19.9418 70.5749 18.6681 70.015 17.1135C71.0669 16.9689 72.1259 16.8962 73.1666 16.8962H73.2731C73.3593 16.8962 73.4445 16.8982 73.5297 16.8992L75.5433 16.9315L75.1456 14.548L75.0655 13.9941C74.82 12.2838 74.5431 10.345 74.4224 8.72665L74.2489 6.39265L72.0741 7.27611C71.7617 7.40247 71.503 7.50456 71.3225 7.57532C69.4693 8.29907 65.2444 9.75365 57.7747 11.3599C57.4937 11.4205 57.2685 11.468 57.1508 11.4923L55.1181 11.9209L55.9346 13.8253C56.1872 14.4399 56.3789 14.9635 56.5138 15.3557C56.8486 16.3907 57.0504 17.1984 57.1306 17.5967C57.2026 17.9535 57.2543 18.2992 57.2543 18.2992C57.2827 18.4842 57.303 18.6409 57.3162 18.7561C57.2482 18.6702 57.1478 18.5468 57.023 18.4013C56.1426 17.3783 55.2854 16.7557 55.0166 16.5666C53.3074 15.3637 51.6185 14.9432 50.8314 14.9119C50.7117 14.9069 50.5889 14.9069 50.5889 14.9069C50.0168 14.9069 49.4123 14.9877 48.8422 15.1393C48.7651 15.1596 48.685 15.1828 48.5977 15.2101L45.9279 13.6716L47.1736 6.53012L41.4333 11.5165L31.311 6.052L37.0736 15.2101L32.3882 19.0179C32.2756 19.0391 32.1204 19.0664 31.9774 19.0927C31.8597 19.1139 31.7502 19.1331 31.6751 19.1473C31.524 19.1756 31.3739 19.2029 31.2237 19.2292L29.3157 19.5668L31.8161 27.5695H31.0087C30.8677 27.2814 30.7409 27.0156 30.6222 26.7629L29.8736 25.1597L26.8346 26.7143C26.4552 24.9636 26.1154 23.1936 25.8233 21.4469C25.3922 18.8754 25.0442 16.2523 24.7896 13.6524L24.5918 11.6308L12.1 15.1201L12.8009 16.877C13.0464 17.4936 13.2665 18.0768 13.4856 18.6914L6.26434 20.6655L6.41751 20.9769C6.52808 21.2023 6.62647 21.4307 6.71066 21.6572C6.76544 21.8068 6.80196 21.92 6.88818 22.1929C6.93484 22.3425 6.99773 22.5396 7.08598 22.8156L7.15292 23.0238L7.48868 24.1084C7.84066 25.2436 8.49493 27.3582 8.63998 27.8384C9.69999 31.3399 11.3017 36.6316 12.1334 43.1726C12.1801 43.5365 12.2146 43.8327 12.2359 44.0146L12.4621 45.9716L23.6323 43.0038C23.7398 43.2565 23.8564 43.4961 23.9802 43.7205C25.2197 45.9494 27.4868 47.0866 28.7081 47.3079C29.2863 47.412 29.8777 47.4201 30.0451 47.4201H30.0735C30.2662 47.4181 30.5583 47.4161 30.9306 47.3585C31.0412 47.3413 31.6254 47.2422 32.2462 46.9723C34.0345 46.194 35.2264 44.2987 35.3562 44.0854C35.622 43.6487 35.9334 43.0443 36.2864 41.8717L36.7956 43.5011L38.4237 42.9998C40.1288 42.4752 41.8796 42.0274 43.6274 41.6715C45.0698 41.3774 46.5416 41.1378 48.0013 40.9609L49.9976 40.7183L49.4336 38.7947C49.3098 38.3732 49.1952 37.9456 49.0897 37.5171C49.6192 37.6444 50.1609 37.7101 50.7066 37.7121H50.7279C51.5019 37.7121 53.0051 37.5757 54.3715 36.6589C55.1607 36.1292 55.8261 35.4044 56.3241 34.5361C56.8729 36.4941 57.3131 38.5036 57.6327 40.5101L57.9197 42.3154L64.9898 40.6739L64.2382 38.1872L68.5969 37.7819L68.2277 35.9311H68.2287Z" fill="#667ABC"/>
<path d="M35.0394 19.0824L41.2615 18.2555L43.9435 21.7793C44.0135 20.2711 44.0835 18.7629 44.1535 17.2558L47.794 16.7807L44.2366 14.7105L45.4782 9.72311L41.6419 13.5521L34.7108 9.32788L39.3586 15.6284L35.0384 19.0834L35.0394 19.0824Z" fill="white"/>
<path d="M24.1501 29.7923C24.4706 29.6326 24.855 29.4082 25.2537 29.0928C25.3734 28.9978 25.485 28.9028 25.5884 28.8077C25.0731 26.5799 24.6025 24.2529 24.1957 21.828C23.7352 19.0805 23.3933 16.4382 23.1469 13.9172L14.4446 16.3483C15.1101 18.0172 15.5371 19.313 16.1478 21.2245C17.0384 24.0164 17.3691 25.6641 17.8843 28.1123C17.0313 28.4378 16.38 28.6622 15.527 28.9887C14.6739 26.1199 14.0714 23.9426 13.8624 23.0612C13.7478 22.576 13.6555 22.1302 13.6555 22.1302C13.5226 21.4893 13.4333 20.9597 13.3765 20.6008C11.7759 21.0355 10.1762 21.4712 8.57555 21.9058C8.64858 22.0756 8.65264 22.0857 8.65264 22.0857C8.73074 22.2727 8.7845 22.4446 8.84029 22.6215C8.84841 22.6478 8.85247 22.6599 8.85247 22.6599C8.94376 22.9571 10.1245 26.7659 10.3304 27.4462C11.4959 31.2974 13.0509 36.5102 13.8827 43.0584C13.9304 43.4304 13.9659 43.7336 13.9872 43.9206C16.6347 43.2171 19.2811 42.5136 21.9286 41.81C21.2459 40.6951 20.5359 39.3658 19.8928 37.8243C19.0022 35.6884 18.4828 33.7214 18.1714 32.0879C19.3258 31.7432 20.2762 31.4996 21.4306 31.1559C21.7815 32.289 22.0787 33.3292 22.3303 34.2571C22.3303 34.2571 22.9247 36.4476 23.0018 37.9547C23.017 38.2448 23.0079 38.5228 23.0079 38.5228C23.0008 38.731 22.9846 38.9089 22.9693 39.0454C24.6299 38.5248 26.2904 38.0032 27.9499 37.4827C27.4893 36.016 27.041 34.4886 26.6129 32.9016C26.4963 32.7459 26.3796 32.5903 26.2599 32.4346C25.5509 31.5056 24.8449 30.6252 24.1491 29.7913L24.1501 29.7923Z" fill="white"/>
<path d="M67.9174 16.1168C69.6469 15.7418 71.4646 15.5305 73.3615 15.5396C73.4538 15.5396 73.5471 15.5406 73.6384 15.5426C73.6262 15.4618 73.61 15.3496 73.5988 15.2677C73.3341 13.4341 73.0855 11.6055 72.8533 9.78295C72.8259 9.50093 72.8015 9.22396 72.7812 8.95508C72.4597 9.08547 72.1929 9.1906 72.0083 9.26338C70.9939 9.65963 66.7377 11.2901 58.1978 13.1268C57.9137 13.1874 57.6865 13.2359 57.5678 13.2612C57.7859 13.7697 58 14.3256 58.1988 14.9291C58.4635 15.7307 58.7719 16.7839 58.9159 17.4743C58.9565 17.6967 59.0052 17.909 59.0377 18.1213C59.0752 18.101 59.135 18.0687 59.2081 18.0303C59.9587 17.6371 60.5856 17.4198 61.1516 17.2358C62.5311 16.787 63.9117 16.416 64.3144 16.3099C64.9818 20.5523 65.4849 24.6553 66.0063 29.1302C66.124 30.138 66.2356 31.1417 66.3431 32.1404C67.6597 31.7776 68.9774 31.4147 70.294 31.0508C71.3713 30.7536 72.4495 30.4564 73.5268 30.1592C72.5145 27.9051 71.5092 25.5448 70.5253 23.0804C69.5333 20.5968 68.7258 18.4255 67.9174 16.1178V16.1168Z" fill="white"/>
<path d="M59.735 21.2272L59.6782 19.1196L58.465 20.9846L56.8096 20.2123L57.8747 21.7791L56.7842 23.1589L58.4874 22.6464L60.1225 24.4457L59.8405 22.3988L62.2435 21.3758L59.735 21.2272Z" fill="white"/>
<path d="M64.8825 23.1251C64.2039 23.1766 63.6084 23.2625 63.1134 23.3535C62.5819 23.4506 62.1173 23.5617 61.7339 23.6659C61.3048 23.7821 60.9072 23.9074 60.543 24.0358C61.0472 26.3476 61.5513 28.6583 62.0544 30.9701C61.6416 31.0762 61.2297 31.1814 60.8169 31.2875C60.5014 29.7328 60.186 28.1792 59.8715 26.6246C59.4222 26.6933 58.9129 26.7964 58.3621 26.95C58.4281 27.2472 58.5062 27.5181 58.5873 27.7577C58.0467 27.8557 57.4939 27.9649 56.9278 28.0872C56.6154 28.1549 56.3081 28.2247 56.0058 28.2955C56.7016 30.0017 57.3894 31.9334 57.9949 34.0764C58.635 36.3406 59.0732 38.4512 59.3755 40.3475C60.5461 40.0756 61.7166 39.8037 62.8872 39.5318C62.2958 37.5759 61.7055 35.6209 61.1141 33.665C61.7532 33.4113 62.3922 33.1585 63.0313 32.9048C63.2199 34.1522 63.4086 35.3985 63.5973 36.6459C64.6015 36.5529 65.6057 36.4589 66.6099 36.3659C66.3056 34.8436 66.0267 33.2576 65.7802 31.61C65.3339 28.623 65.0488 25.7846 64.8825 23.123V23.1251Z" fill="white"/>
<path d="M58.1425 27.0106C58.1232 26.5597 58.1029 26.1089 58.0837 25.6581C58.0593 25.091 58.034 24.5249 58.0096 23.9579C55.6675 25.1163 53.3263 26.2737 50.9842 27.4321C51.0815 27.8617 51.1789 28.2913 51.2753 28.7199C52.1142 28.635 52.953 28.5501 53.7919 28.4652C53.8234 29.2273 53.7615 29.9096 53.6256 30.4727C53.5728 30.6344 53.5089 30.7911 53.4318 30.9386C52.736 32.2578 51.8991 31.8656 51.8991 31.8656C51.8991 31.8656 50.7752 31.7746 49.8592 28.0922C48.9159 24.2955 49.3531 20.9365 49.3815 20.703C49.4951 19.7882 49.8714 19.2181 50.2396 19.2181C50.7275 19.2181 51.2114 20.4008 51.4467 21.8624C51.681 23.3241 51.6171 24.0488 51.6171 24.0488L52.8425 23.5717C54.1835 23.0512 55.5244 22.5306 56.8654 22.009C56.8198 21.8665 56.7396 21.632 56.6189 21.3509C55.7273 19.2737 53.5616 16.8214 50.8198 16.7143C50.5936 16.7052 50.0367 16.6991 49.3399 16.8851C45.8251 17.8242 44.5105 22.1161 44.2843 22.9167C44.1778 23.2948 44.0997 23.6607 44.0429 24.0155C44.2386 24.5957 44.4486 25.187 44.6809 25.7905C45.5431 28.0315 46.5139 30.0117 47.4856 31.7301C47.0089 31.8019 46.4885 31.907 45.9357 32.0576C45.6719 32.1294 45.4214 32.2072 45.179 32.2881C45.4569 32.8754 45.8221 33.4364 46.3221 33.9711C46.384 34.0378 46.4733 34.1319 46.5879 34.2451C46.6528 34.2168 46.7198 34.1885 46.7837 34.1612C46.7959 34.2622 46.808 34.3633 46.8212 34.4664C47.5516 35.1295 48.9169 36.107 50.763 36.1121C51.116 36.1121 52.3677 36.0888 53.4714 35.3489C55.3916 34.0621 56.1746 31.2085 55.425 28.1821C55.564 28.1518 55.703 28.1215 55.8419 28.0922C55.8663 28.0871 55.8906 28.082 55.914 28.076C56.6646 27.9132 57.4152 27.7505 58.1669 27.5878C58.1587 27.3947 58.1496 27.2026 58.1415 27.0096L58.1425 27.0106Z" fill="white"/>
<path d="M47.3208 37.3297C47.0967 36.3209 46.9364 35.3637 46.8228 34.4701C46.8096 34.368 46.7964 34.2659 46.7853 34.1648C46.7214 34.1931 46.6554 34.2214 46.5895 34.2487C45.7932 34.5914 44.8864 34.931 43.872 35.2302C42.8617 35.5284 41.9184 35.7346 41.0703 35.8792C39.7253 27.082 38.7698 20.8482 38.6957 20.4024C38.6886 20.363 38.6623 20.2043 38.641 19.989C38.6085 19.6655 38.6065 19.3926 38.6125 19.1904C36.5473 19.9 34.3583 20.4924 32.0476 20.926C31.8914 20.9553 31.7352 20.9836 31.579 21.0109C32.4118 23.6755 33.2445 26.341 34.0763 29.0056C34.8746 28.948 35.6871 28.9035 36.5138 28.8762C36.6609 28.8711 36.807 28.8671 36.9531 28.863C36.8161 30.0386 36.6883 31.2355 36.5706 32.4505C36.455 33.6554 36.3546 34.8411 36.2653 36.0126C36.8344 37.8351 37.4044 39.6577 37.9735 41.4792C39.5944 40.9798 41.3868 40.5078 43.3395 40.1095C44.929 39.785 46.4384 39.5485 47.8493 39.3767C47.6607 38.7348 47.4831 38.0515 47.3219 37.3287L47.3208 37.3297Z" fill="white"/>
<path d="M43.9401 24.972C43.8529 24.7628 43.7657 24.5535 43.6794 24.3433C43.5222 23.9622 43.366 23.5801 43.2098 23.196C42.8385 22.2812 42.4774 21.3725 42.1244 20.4678C41.1598 20.7003 40.1951 20.9317 39.2304 21.1642C39.3035 21.4766 39.4029 21.9031 39.5165 22.4096C39.8634 23.9501 39.9902 24.6263 40.403 26.6288C40.403 26.6288 41.1385 30.197 41.4448 32.2874C41.5046 32.6968 41.528 33.1001 41.528 33.1001C41.531 33.1617 41.5341 33.2103 41.5341 33.2295C42.2116 33.002 42.8882 32.7736 43.5658 32.5462C44.0659 32.3784 44.566 32.2095 45.0661 32.0418C45.6341 31.8507 46.2011 31.6597 46.7692 31.4686C45.8096 29.361 44.8652 27.1948 43.9401 24.971V24.972Z" fill="white"/>
<path d="M34.186 29.3514C33.9517 29.3554 33.7174 29.3595 33.4831 29.3625C33.4719 29.3625 33.4608 29.3625 33.4496 29.3625C33.6129 30.3986 33.7154 31.2972 33.7823 32.0139C33.828 32.5001 33.8949 33.2239 33.9284 34.1872C33.9517 34.8675 33.9517 35.4517 33.9436 35.9046C33.2112 34.8604 32.4677 33.7232 31.7323 32.492C30.7088 30.7767 29.8506 29.127 29.1294 27.5845C28.181 28.0697 27.2326 28.5549 26.2831 29.0401C26.0914 29.1381 25.8997 29.2362 25.708 29.3342C25.3205 29.5323 24.934 29.7305 24.5465 29.9286C25.1501 30.5998 25.7617 31.3023 26.3795 32.0341C26.7822 32.5112 27.1859 33.0015 27.5927 33.5059C28.1516 34.1983 28.7125 34.914 29.2745 35.6569C30.6682 37.4997 31.9108 39.2939 33.0165 41.0073C32.9891 41.1205 32.5326 42.8924 31.3154 43.1067C31.2251 43.1229 31.0232 43.1573 30.8173 43.0926C30.0312 42.848 29.6427 41.3085 29.7512 39.3404C28.0319 39.4486 26.3125 39.5567 24.5932 39.6649C24.6155 39.9206 24.6571 40.2784 24.7423 40.6979C24.8245 41.1053 25.0243 42.0949 25.5264 42.9976C26.5337 44.808 28.3565 45.6075 29.0655 45.7349C29.5626 45.8249 30.1103 45.8198 30.1103 45.8198C30.2858 45.8178 30.4755 45.8158 30.7199 45.7784C30.7199 45.7784 31.1653 45.7096 31.6146 45.5145C32.9586 44.9293 33.9487 43.3039 33.9487 43.3039C34.2591 42.7944 34.7602 41.8553 35.4438 38.3346C35.528 37.899 35.6244 37.4026 35.7238 36.8224C35.81 36.32 35.8983 35.755 35.9845 35.1121C36.021 34.8402 36.0575 34.5551 36.092 34.2539C36.3233 32.2767 36.4105 30.5887 36.441 29.312C35.6883 29.3241 34.9356 29.3362 34.183 29.3484L34.186 29.3514Z" fill="white"/>
</svg>
